<svg id="Layer_1" enable-background="new 0 0 508.632 508.632" height="512" viewBox="0 0 508.632 508.632" width="512" xmlns="http://www.w3.org/2000/svg"><g><g><path d="m303.397 490.748-55.687-212.747c-3.318-12.768 4.343-25.808 17.111-29.126 12.767-3.318 25.808 4.343 29.126 17.11l55.688 212.747c3.318 12.768-4.343 25.808-17.111 29.126-12.743 3.313-25.802-4.317-29.127-17.11z" fill="#414b82"/></g><g><path d="m163.925 508.469c-13.105-1.511-22.504-13.36-20.993-26.465l12.119-105.097c.235-2.042.733-4.045 1.482-5.96l36.236-92.7c4.803-12.286 18.655-18.355 30.943-13.551 12.287 4.803 18.353 18.656 13.551 30.943l-35.108 89.816-11.764 102.02c-1.512 13.107-13.359 22.503-26.466 20.994z" fill="#5f6e9b"/></g><g fill="#ffb69e"><ellipse cx="244.092" cy="83.691" rx="41.254" ry="41.254" transform="matrix(.383 -.924 .924 .383 73.362 277.175)"/><path d="m179.843 105.22-17.943-12.695-22.368-78.095c-3.027-10.568-14.046-16.683-24.617-13.655-10.568 3.027-16.682 14.048-13.655 24.616l24.295 84.825c1.248 4.355 3.943 8.155 7.642 10.77l20.919 14.795 27.787-4.835z"/><path d="m264.525 143.648-.721-6.338-38.596-.013-.853 5.581c-1.875 12.27 7.621 23.327 20.033 23.327 12.101 0 21.505-10.534 20.137-22.557z"/><path d="m434.99 85.431c-8.647-6.789-21.159-5.284-27.948 3.363l-42.522 54.154-21.15-1.659-3.359 21.814 3.359 18.104 28.64 2.271c6.646.526 13.112-2.307 17.229-7.55l49.113-62.548c1.412-1.798 2.464-3.763 3.169-5.81 2.685-7.792.318-16.761-6.531-22.139z"/></g><path d="m292.751 137.32-28.947-.01c.403 10.456-9.307 19.343-19.445 19.343-10.9 0-18.685-8.413-19.156-18.948l.006-.407-45.359-32.078c-.003 0-.005.001-.008.001l-25.725 30.56 37.613 26.6c-.247 2.488-.109-4.841-.132 118.715-.003 14.937 12.106 27.052 27.043 27.052h51.341c14.935 0 27.043-12.108 27.043-27.043v-103.574l46.345 3.676v-39.917z" fill="#64afff"/><g><g><path d="m347.904 79.985h-11.849v-45.459c0-3.896 2.462-7.367 6.14-8.654l37.357-13.075c5.962-2.087 12.198 2.338 12.198 8.654v46.006h-11.849v-39.03c0-1.563-1.543-2.658-3.019-2.142l-26.045 9.116c-1.757.615-2.933 2.273-2.933 4.134z" fill="#0073aa"/></g><g fill="#41b4e6"><path d="m334.539 71.998c-7.441 0-13.474 3.575-13.474 7.987 0 4.411 6.032 7.986 13.474 7.986s13.474-3.575 13.474-7.986c-.001-4.411-6.033-7.987-13.474-7.987z"/><path d="m378.071 59.471c-7.441 0-13.474 3.575-13.474 7.986s6.032 7.987 13.474 7.987 13.474-3.575 13.474-7.987c0-4.41-6.032-7.986-13.474-7.986z"/></g></g><g><g><path d="m449.176 230.86h-11.849v-44.869c0-4.25 2.686-8.035 6.697-9.439l21.712-7.599c2.162 6.176-1.092 12.936-7.269 15.098l-5.824 2.038c-2.076.727-3.466 2.686-3.466 4.886v39.885z" fill="#0073aa"/></g><path d="m435.81 222.874c-7.441 0-13.474 3.576-13.474 7.986 0 4.411 6.032 7.986 13.474 7.986s13.474-3.575 13.474-7.986-6.032-7.986-13.474-7.986z" fill="#41b4e6"/></g><g><path d="m58.819 156.492h-11.849v-45.186c0-4.06 2.566-7.676 6.398-9.017l22.011-7.704c2.162 6.177-1.093 12.936-7.27 15.098l-6.646 2.326c-1.584.554-2.644 2.049-2.644 3.727z" fill="#0073aa"/></g><g fill="#ffda52"><path d="m25.814 57c-2.053 4.048-5.347 7.341-9.395 9.395-1.221.619-1.221 2.334 0 2.953 4.048 2.053 7.342 5.347 9.395 9.395.619 1.221 2.334 1.221 2.953 0 2.053-4.048 5.347-7.341 9.395-9.395 1.221-.619 1.221-2.334 0-2.953-4.048-2.053-7.342-5.347-9.395-9.395-.619-1.22-2.333-1.22-2.953 0z"/><path d="m72.888 35.378c-1.403 2.548-3.503 4.648-6.052 6.052-1.033.569-1.033 2.041 0 2.61 2.548 1.403 4.648 3.503 6.052 6.052.569 1.033 2.041 1.033 2.61 0 1.403-2.548 3.503-4.648 6.052-6.052 1.033-.569 1.033-2.041 0-2.61-2.548-1.403-4.648-3.503-6.052-6.052-.569-1.033-2.041-1.033-2.61 0z"/><path d="m34.139 21.476c-1.033 1.835-2.552 3.354-4.387 4.387-.796.448-.796 1.613 0 2.061 1.835 1.033 3.354 2.552 4.387 4.387.448.796 1.613.796 2.061 0 1.033-1.835 2.552-3.354 4.387-4.387.796-.448.796-1.613 0-2.061-1.835-1.033-3.354-2.552-4.387-4.387-.448-.797-1.612-.797-2.061 0z"/></g><g fill="#ffda52"><path d="m457.006 30.67c-4.048-2.053-7.341-5.347-9.395-9.395-.619-1.221-2.334-1.221-2.953 0-2.053 4.048-5.347 7.342-9.395 9.395-1.221.619-1.221 2.334 0 2.953 4.048 2.053 7.341 5.347 9.395 9.395.619 1.221 2.334 1.221 2.953 0 2.053-4.048 5.347-7.342 9.395-9.395 1.221-.619 1.221-2.333 0-2.953z"/><path d="m478.628 77.744c-2.548-1.403-4.648-3.503-6.052-6.052-.569-1.033-2.041-1.033-2.61 0-1.403 2.548-3.503 4.648-6.052 6.052-1.033.569-1.033 2.041 0 2.61 2.548 1.403 4.648 3.503 6.052 6.052.569 1.033 2.041 1.033 2.61 0 1.403-2.548 3.503-4.648 6.052-6.052 1.034-.569 1.034-2.041 0-2.61z"/><path d="m492.531 38.995c-1.835-1.033-3.354-2.552-4.387-4.387-.448-.796-1.613-.796-2.061 0-1.033 1.835-2.552 3.354-4.387 4.387-.796.448-.796 1.613 0 2.061 1.835 1.033 3.354 2.552 4.387 4.387.448.796 1.613.796 2.061 0 1.033-1.835 2.552-3.354 4.387-4.387.796-.448.796-1.613 0-2.061z"/></g><ellipse cx="45.453" cy="156.492" fill="#41b4e6" rx="13.473" ry="7.986"/></g></svg>