<svg id="Layer_1" enable-background="new 0 0 510.702 510.702" height="512" viewBox="0 0 510.702 510.702" width="512" xmlns="http://www.w3.org/2000/svg"><g><circle cx="151.641" cy="73.582" r="38.456"/><path d="m201.448 124.296c-9.905 0-73.361 0-83.499 0l-58.237-22.12-23.655-67.004c-3.411-9.663-14.009-14.731-23.674-11.32-9.663 3.412-14.731 14.011-11.319 23.674l26.52 75.118c1.816 5.146 5.806 9.231 10.908 11.169l63.793 24.23v212.461l-66.995 5.218c-12.26.955-21.425 11.667-20.471 23.928.951 12.209 11.607 21.423 23.928 20.471l87.551-6.817c11.592-.903 20.538-10.572 20.538-22.199v-88.988h9.614v177.977c0 12.297 9.969 22.266 22.266 22.266s22.266-9.969 22.266-22.266c0-.153-.183-318.577-.183-318.686h.651c3.9 0 7.468 3.225 7.485 6.673v136.318c0 10.248 8.308 18.555 18.555 18.555s18.555-8.308 18.555-18.555v-136.413c-.123-24.09-20.128-43.69-44.597-43.69z"/><path d="m506.545 57.609c-6.216-7.272-17.151-8.127-24.424-1.911l-108.942 93.134h-16.127c-5.664 2.363-11.872 3.673-18.382 3.673-26.301 0-47.902-21.391-47.902-47.902 0-3.73.442-7.356 1.253-10.842l-38.998-75.999c-4.368-8.512-14.809-11.873-23.321-7.504-8.512 4.368-11.872 14.809-7.503 23.321l69.701 135.834-22.226 175.499c-1.022 5.897 3.543 11.278 9.482 11.278h13.451v124.811c0 11.48 9.307 20.788 20.787 20.788s20.787-9.307 20.787-20.788v-124.811h8.977v41.731c0 9.989 7.104 18.566 16.919 20.424 71.894 13.489 69.799 13.537 73.437 13.537 9.791-.001 18.513-6.951 20.401-16.924 2.136-11.28-5.276-22.156-16.557-24.292l-52.626-9.965v-24.511h13.45c5.971 0 10.503-5.385 9.482-11.278l-23.463-162.067s101.981-85.166 120.433-100.812c7.273-6.217 8.128-17.152 1.911-24.424z"/><ellipse cx="338.67" cy="104.603" rx="35.902" ry="35.902" transform="matrix(.987 -.16 .16 .987 -12.382 55.6)"/></g></svg>