<svg id="Capa_1" enable-background="new 0 0 512 512" height="512" viewBox="0 0 512 512" width="512" xmlns="http://www.w3.org/2000/svg"><g><path d="m425.052 3.434-22.376 7.061c-69.898 22.057-121.874-4.801-133.728-7.061-48.097-15.175-86.948 24.163-86.948 40.434v36.469c35.984-4.014 50.925-18.091 82.954-18.091 37.796 0 71.14 20.48 88.971 51.213 3.975 6.849 6.076 14.658 6.076 22.578v106.477c26.82 5.959 46.969 29.924 47 58.49.009 8.283-6.7 15.006-14.984 15.015-.005 0-.011 0-.017 0-8.277.001-14.991-6.704-15-14.982-.013-11.862-6.963-22.142-17-26.993-1.829 23.495 8.247 77.475-24.857 143.441 8.592 2.183 11.394 2.758 14.892 2.034 94.115-19.447 161.965-102.467 161.965-198.838v-176.813c0-16.113-38.586-55.691-86.948-40.434zm-12.103 177.565c-24.758-.028-44.922-20.19-44.949-44.945-.009-8.284 6.699-15.006 14.983-15.015h.017c8.276 0 14.99 6.704 15 14.982.009 8.252 6.73 14.972 14.982 14.981h.018c8.277 0 14.99-6.692 15-14.981.009-8.277 6.724-14.982 15-14.982h.017c8.285.009 14.993 6.732 14.983 15.015-.028 24.667-19.948 44.945-45.051 44.945z"/><path d="m243.052 95.604-22.376 7.061c-36.424 11.494-74.928 11.494-111.352 0l-22.376-7.061c-48.097-15.175-86.948 24.163-86.948 40.434v176.812c0 96.098 67.581 179.336 161.964 198.839 1.001.207 2.019.311 3.036.311s2.035-.104 3.036-.311c94.116-19.448 161.964-102.47 161.964-198.839v-176.812c0-16.113-38.587-55.692-86.948-40.434zm-152.052 175.437c-.009 8.277-6.724 14.982-15 14.982-.006 0-.011 0-.017 0-8.285-.009-14.993-6.732-14.983-15.015.028-24.823 20.124-44.945 44.998-44.945h.053c24.758.028 44.922 20.19 44.949 44.945.009 8.284-6.699 15.006-14.983 15.015-.006 0-.011 0-.017 0-8.276 0-14.99-6.704-15-14.982-.009-8.252-6.73-14.972-14.982-14.981-.006 0-.012 0-.018 0-8.277 0-14.991 6.692-15 14.981zm73.933 149.917c-33.011-.038-59.897-26.921-59.933-59.927-.009-8.283 6.7-15.006 14.984-15.015h.017c8.277 0 14.991 6.704 15 14.982.018 16.51 13.477 29.962 30 29.962 16.526 0 29.98-13.434 30-29.963.009-8.277 6.724-14.981 15-14.981h.018c8.284.009 14.992 6.732 14.983 15.016-.04 32.971-26.838 59.926-60.069 59.926zm91.084-134.935c-.006 0-.011 0-.017 0-8.276 0-14.99-6.704-15-14.982-.009-8.252-6.73-14.972-14.982-14.981-.006 0-.012 0-.018 0-8.277 0-14.99 6.692-15 14.981-.009 8.277-6.724 14.982-15 14.982-.006 0-.011 0-.017 0-8.285-.009-14.993-6.732-14.983-15.015.028-24.666 19.948-44.945 45.051-44.945 24.758.028 44.922 20.19 44.949 44.945.009 8.284-6.699 15.006-14.983 15.015z"/></g></svg>